<?xml version="1.0" encoding="utf-8"?>
<svg viewBox="353.701171875 17.143184661865234 103.59646606445312 99.01382446289062" width="103.59646606445312" height="99.01382446289062" xmlns="http://www.w3.org/2000/svg" xmlns:xlink="http://www.w3.org/1999/xlink"><g transform="matrix(1, 0, 0, 1, 0, 0)">
		<g transform="matrix(0.3608374297618866, 0, 0, 0.3608374297618866, 202.36597103888636, -129.06812939880362)"><g transform="matrix(1, 0, 0, 1, 0, 0)"><path class="st17" d="M498.4,630.1c-44.4-10.3,10.9-60.9,23.9-73.4c22-21.3,38.4-52.7,35-84c-3.4-31.1-29.4-57.8-60.3-62.4&#10;&#9;&#9;&#9;c-34.1-5.1-77.6,19.1-73.6,58c2.2,21.5,22.6,37.3,43.6,25c-15.9-2.6-11.6-27.9,5.3-24.8c19.6,3.6,14.4,27.5,7.4,39.4&#10;&#9;&#9;&#9;c-17,28.9-47.4,57.6-49.8,93.3c-2.3,35,45.5,63.2,77,48.8" style="fill: rgb(239, 118, 58);" transform="matrix(1, 0, 0, 1, 0, 0)"/></g><g id="Wp73mb.tif" transform="matrix(1, 0, 0, 1, 0, 0)">
			<path class="st2" d="M565.2,663.9c0,0,45.7-5.6,59.4,15.6h-86.2v-11L565.2,663.9z" style="fill: rgb(210, 98, 36);"/>
			<path class="st18" d="M612.6,490.7c0,0,13.7-20.8,35.5-20.8l-13.3,27.5C634.8,497.3,619.2,502.5,612.6,490.7z" style="fill: rgb(168, 65, 14);"/>
			<g>
				
					
				<g><g transform="matrix(1, 0, 0, 1, 0, 0)">
					<path class="st2" d="M645.7,575.2c-14.5-4-32.4,5.8-32.4,5.8l-2.7-5.7l9.8-16.4c32.9,5.1,55-12.3,55-12.3s-10-58.4-57.4-53.5&#10;&#9;&#9;&#9;&#9;&#9;&#9;l10.4-27.8c0,0-36.7,0-40.6,54.5c-3.4,48-51,23.4-83.9,66.8c-9.8,9.9-15.8,23.4-15.8,38.4c0,30.1,24.4,54.6,54.6,54.6&#10;&#9;&#9;&#9;&#9;&#9;&#9;c30.1,0,54.6-24.4,54.6-54.6c0-4.2-0.5-8.2-1.3-12.1c6.3,0.9,14.4,1,22.6-2c17.7-6.5,28.7-21.1,28.7-21.1l8.7,5&#10;&#9;&#9;&#9;&#9;&#9;&#9;C656,594.8,660.3,579.2,645.7,575.2z" style="fill: rgb(210, 98, 36);"/>
				</g></g>
			</g>
		</g><g transform="matrix(1, 0, 0, 1, 0, 0)">
			<path class="st4" d="M649.3,520.8c0,7.6-6.2,13.8-13.8,13.8c-7.6,0-13.7-6.2-13.7-13.8c0-7.6,6.2-13.8,13.7-13.8&#10;&#9;&#9;&#9;&#9;C643.1,507,649.3,513.2,649.3,520.8z" style="fill: rgb(255, 255, 255);"/>
			<path class="st5" d="M646.4,520.8c0,6-4.9,10.9-10.9,10.9c-6,0-10.9-4.9-10.9-10.9c0-6,4.9-10.9,10.9-10.9&#10;&#9;&#9;&#9;&#9;C641.5,509.9,646.4,514.8,646.4,520.8z" style="fill: rgb(33, 25, 21);"/>
		</g><g transform="matrix(1, 0, 0, 1, 0, 0)">
			<defs>
				<path id="SVGID_3_" d="M645.7,575.2c-14.5-4-32.4,5.8-32.4,5.8l-2.7-5.7l9.8-16.4c32.9,5.1,55-12.3,55-12.3s-10-58.4-57.4-53.5&#10;&#9;&#9;&#9;&#9;&#9;l10.4-27.8c0,0-36.7,0-40.6,54.5c-3.4,48-51,23.4-83.9,66.8c-9.8,9.9-15.8,23.4-15.8,38.4c0,30.1,24.4,54.6,54.6,54.6&#10;&#9;&#9;&#9;&#9;&#9;c30.1,0,54.6-24.4,54.6-54.6c0-4.2-0.5-8.2-1.3-12.1c6.3,0.9,14.4,1,22.6-2c17.7-6.5,28.7-21.1,28.7-21.1l8.7,5&#10;&#9;&#9;&#9;&#9;&#9;C656,594.8,660.3,579.2,645.7,575.2z"/>
			</defs>
			<clipPath id="SVGID_4_">
				<use style="overflow:visible;" xlink:href="#SVGID_3_"/>
			</clipPath>
			<path class="st19" d="M620.4,558.9c0,0,23.9-22,55-12.3c31.1,9.7-36.1,19.6-36.1,19.6L620.4,558.9z" style="clip-path: url('#SVGID_4_'); fill: rgb(237, 214, 166);"/>
		</g><path class="st20" d="M675.7,549.5c2.7-1.3,0.3-7.3-1.3-7.3c0,0-10.9,2.7-9.3,10.3C665.2,552.6,672.9,550.9,675.7,549.5z" style="fill: rgb(89, 87, 84);" transform="matrix(1, 0, 0, 1, 0, 0)"/></g>
		
		
		
		
	</g></svg>